<?xml version="1.0" encoding="utf-8" standalone="no"?>
<!DOCTYPE svg PUBLIC "-//W3C//DTD SVG 1.1//EN"
  "http://www.w3.org/Graphics/SVG/1.1/DTD/svg11.dtd">
<svg xmlns:xlink="http://www.w3.org/1999/xlink" width="520.827219pt" height="233.986156pt" viewBox="0 0 520.827219 233.986156" xmlns="http://www.w3.org/2000/svg" version="1.1">
 <metadata>
  <rdf:RDF xmlns:dc="http://purl.org/dc/elements/1.1/" xmlns:cc="http://creativecommons.org/ns#" xmlns:rdf="http://www.w3.org/1999/02/22-rdf-syntax-ns#">
   <cc:Work>
    <dc:type rdf:resource="http://purl.org/dc/dcmitype/StillImage"/>
    <dc:date>2026-06-16T08:59:00.605736</dc:date>
    <dc:format>image/svg+xml</dc:format>
    <dc:creator>
     <cc:Agent>
      <dc:title>Matplotlib v3.9.2, https://matplotlib.org/</dc:title>
     </cc:Agent>
    </dc:creator>
   </cc:Work>
  </rdf:RDF>
 </metadata>
 <defs>
  <style type="text/css">*{stroke-linejoin: round; stroke-linecap: butt}</style>
 </defs>
 <g id="figure_1">
  <g id="patch_1">
   <path d="M 0 233.986156 
L 520.827219 233.986156 
L 520.827219 0 
L 0 0 
z
" style="fill: #ffffff"/>
  </g>
  <g id="axes_1">
   <g id="patch_2">
    <path d="M 147.217187 187.362406 
L 504.337188 187.362406 
L 504.337188 26.586406 
L 147.217187 26.586406 
z
" style="fill: #ffffff"/>
   </g>
   <g id="matplotlib.axis_1">
    <g id="xtick_1">
     <g id="line2d_1">
      <defs>
       <path id="m174a908820" d="M 0 0 
L 0 3.5 
" style="stroke: #14223f; stroke-width: 0.8"/>
      </defs>
      <g>
       <use xlink:href="#m174a908820" x="147.217187" y="187.362406" style="fill: #14223f; stroke: #14223f; stroke-width: 0.8"/>
      </g>
     </g>
     <g id="text_1">
      <!-- 0 -->
      <g style="fill: #14223f" transform="translate(144.576484 201.146) scale(0.095 -0.095)">
       <defs>
        <path id="HelveticaNeue-30" d="M 845 2234 
Q 845 2400 848 2601 
Q 851 2803 880 3004 
Q 909 3206 963 3398 
Q 1018 3590 1123 3734 
Q 1229 3878 1389 3968 
Q 1549 4058 1779 4058 
Q 2010 4058 2170 3968 
Q 2330 3878 2435 3734 
Q 2541 3590 2595 3398 
Q 2650 3206 2678 3004 
Q 2707 2803 2710 2601 
Q 2714 2400 2714 2234 
Q 2714 1978 2698 1661 
Q 2682 1344 2595 1065 
Q 2509 787 2317 595 
Q 2125 403 1779 403 
Q 1434 403 1242 595 
Q 1050 787 963 1065 
Q 877 1344 861 1661 
Q 845 1978 845 2234 
z
M 269 2227 
Q 269 1978 281 1709 
Q 294 1440 345 1184 
Q 397 928 493 701 
Q 589 474 755 301 
Q 922 128 1174 29 
Q 1427 -70 1779 -70 
Q 2138 -70 2387 29 
Q 2637 128 2803 301 
Q 2970 474 3066 701 
Q 3162 928 3213 1184 
Q 3264 1440 3277 1709 
Q 3290 1978 3290 2227 
Q 3290 2477 3277 2745 
Q 3264 3014 3213 3270 
Q 3162 3526 3066 3756 
Q 2970 3987 2803 4160 
Q 2637 4333 2384 4435 
Q 2131 4538 1779 4538 
Q 1427 4538 1174 4435 
Q 922 4333 755 4160 
Q 589 3987 493 3756 
Q 397 3526 345 3270 
Q 294 3014 281 2745 
Q 269 2477 269 2227 
z
" transform="scale(0.015625)"/>
       </defs>
       <use xlink:href="#HelveticaNeue-30"/>
      </g>
     </g>
    </g>
    <g id="xtick_2">
     <g id="line2d_2">
      <g>
       <use xlink:href="#m174a908820" x="194.833188" y="187.362406" style="fill: #14223f; stroke: #14223f; stroke-width: 0.8"/>
      </g>
     </g>
     <g id="text_2">
      <!-- 20 -->
      <g style="fill: #14223f" transform="translate(189.551781 201.146) scale(0.095 -0.095)">
       <defs>
        <path id="HelveticaNeue-32" d="M 282 2931 
L 826 2931 
Q 819 3136 867 3337 
Q 915 3539 1024 3699 
Q 1133 3859 1302 3958 
Q 1472 4058 1709 4058 
Q 1888 4058 2048 4000 
Q 2208 3942 2326 3833 
Q 2445 3725 2515 3574 
Q 2586 3424 2586 3238 
Q 2586 3002 2512 2822 
Q 2438 2643 2294 2489 
Q 2150 2336 1932 2185 
Q 1715 2035 1427 1856 
Q 1190 1715 972 1555 
Q 755 1395 582 1184 
Q 410 973 298 688 
Q 186 403 154 0 
L 3117 0 
L 3117 480 
L 787 480 
Q 826 691 950 854 
Q 1075 1018 1251 1158 
Q 1427 1299 1638 1424 
Q 1850 1549 2061 1677 
Q 2272 1811 2470 1958 
Q 2669 2106 2822 2288 
Q 2976 2470 3069 2700 
Q 3162 2931 3162 3232 
Q 3162 3552 3050 3795 
Q 2938 4038 2746 4201 
Q 2554 4365 2294 4451 
Q 2035 4538 1741 4538 
Q 1382 4538 1100 4416 
Q 819 4294 630 4080 
Q 442 3866 352 3571 
Q 262 3277 282 2931 
z
" transform="scale(0.015625)"/>
       </defs>
       <use xlink:href="#HelveticaNeue-32"/>
       <use xlink:href="#HelveticaNeue-30" x="55.599991"/>
      </g>
     </g>
    </g>
    <g id="xtick_3">
     <g id="line2d_3">
      <g>
       <use xlink:href="#m174a908820" x="242.449187" y="187.362406" style="fill: #14223f; stroke: #14223f; stroke-width: 0.8"/>
      </g>
     </g>
     <g id="text_3">
      <!-- 40 -->
      <g style="fill: #14223f" transform="translate(237.167781 201.146) scale(0.095 -0.095)">
       <defs>
        <path id="HelveticaNeue-34" d="M 2170 1542 
L 646 1542 
L 2157 3763 
L 2170 3763 
L 2170 1542 
z
M 2682 1542 
L 2682 4538 
L 2246 4538 
L 179 1587 
L 179 1062 
L 2170 1062 
L 2170 0 
L 2682 0 
L 2682 1062 
L 3296 1062 
L 3296 1542 
L 2682 1542 
z
" transform="scale(0.015625)"/>
       </defs>
       <use xlink:href="#HelveticaNeue-34"/>
       <use xlink:href="#HelveticaNeue-30" x="55.599991"/>
      </g>
     </g>
    </g>
    <g id="xtick_4">
     <g id="line2d_4">
      <g>
       <use xlink:href="#m174a908820" x="290.065187" y="187.362406" style="fill: #14223f; stroke: #14223f; stroke-width: 0.8"/>
      </g>
     </g>
     <g id="text_4">
      <!-- 60 -->
      <g style="fill: #14223f" transform="translate(284.783781 201.146) scale(0.095 -0.095)">
       <defs>
        <path id="HelveticaNeue-36" d="M 2650 3379 
L 3194 3379 
Q 3142 3942 2809 4240 
Q 2477 4538 1914 4538 
Q 1427 4538 1107 4333 
Q 787 4128 595 3789 
Q 403 3450 323 3011 
Q 243 2573 243 2106 
Q 243 1747 297 1363 
Q 352 979 518 659 
Q 685 339 992 134 
Q 1299 -70 1805 -70 
Q 2234 -70 2525 74 
Q 2816 218 2992 438 
Q 3168 659 3245 928 
Q 3322 1197 3322 1446 
Q 3322 1760 3226 2029 
Q 3130 2298 2954 2496 
Q 2778 2694 2518 2806 
Q 2259 2918 1933 2918 
Q 1562 2918 1277 2777 
Q 992 2637 800 2323 
L 787 2336 
Q 794 2598 838 2899 
Q 883 3200 1001 3459 
Q 1120 3718 1331 3888 
Q 1542 4058 1888 4058 
Q 2214 4058 2412 3872 
Q 2611 3686 2650 3379 
z
M 1830 2438 
Q 2061 2438 2233 2355 
Q 2406 2272 2521 2134 
Q 2637 1997 2691 1808 
Q 2746 1619 2746 1408 
Q 2746 1210 2685 1027 
Q 2624 845 2509 704 
Q 2394 563 2224 483 
Q 2054 403 1830 403 
Q 1606 403 1430 483 
Q 1254 563 1136 697 
Q 1018 832 954 1017 
Q 890 1203 890 1414 
Q 890 1626 950 1814 
Q 1011 2003 1132 2140 
Q 1254 2278 1427 2358 
Q 1600 2438 1830 2438 
z
" transform="scale(0.015625)"/>
       </defs>
       <use xlink:href="#HelveticaNeue-36"/>
       <use xlink:href="#HelveticaNeue-30" x="55.599991"/>
      </g>
     </g>
    </g>
    <g id="xtick_5">
     <g id="line2d_5">
      <g>
       <use xlink:href="#m174a908820" x="337.681188" y="187.362406" style="fill: #14223f; stroke: #14223f; stroke-width: 0.8"/>
      </g>
     </g>
     <g id="text_5">
      <!-- 80 -->
      <g style="fill: #14223f" transform="translate(332.399781 201.146) scale(0.095 -0.095)">
       <defs>
        <path id="HelveticaNeue-38" d="M 992 3360 
Q 992 3533 1056 3661 
Q 1120 3789 1225 3878 
Q 1331 3968 1478 4013 
Q 1626 4058 1786 4058 
Q 2118 4058 2332 3882 
Q 2547 3706 2547 3360 
Q 2547 3014 2336 2822 
Q 2125 2630 1798 2630 
Q 1632 2630 1485 2675 
Q 1338 2720 1229 2809 
Q 1120 2899 1056 3036 
Q 992 3174 992 3360 
z
M 416 3379 
Q 416 3072 589 2813 
Q 762 2554 1050 2438 
Q 666 2304 461 2006 
Q 256 1709 256 1306 
Q 256 960 374 701 
Q 493 442 701 269 
Q 909 96 1190 13 
Q 1472 -70 1798 -70 
Q 2112 -70 2387 19 
Q 2662 109 2864 285 
Q 3066 461 3184 717 
Q 3302 973 3302 1306 
Q 3302 1728 3104 2019 
Q 2906 2310 2496 2438 
Q 2784 2566 2953 2819 
Q 3123 3072 3123 3379 
Q 3123 3597 3046 3805 
Q 2970 4013 2806 4176 
Q 2643 4339 2380 4438 
Q 2118 4538 1747 4538 
Q 1485 4538 1245 4461 
Q 1005 4384 819 4237 
Q 634 4090 525 3875 
Q 416 3661 416 3379 
z
M 832 1280 
Q 832 1478 905 1638 
Q 979 1798 1110 1913 
Q 1242 2029 1418 2089 
Q 1594 2150 1792 2150 
Q 1984 2150 2153 2083 
Q 2323 2016 2451 1901 
Q 2579 1786 2652 1629 
Q 2726 1472 2726 1286 
Q 2726 1094 2659 934 
Q 2592 774 2467 656 
Q 2342 538 2172 470 
Q 2003 403 1798 403 
Q 1376 403 1104 636 
Q 832 870 832 1280 
z
" transform="scale(0.015625)"/>
       </defs>
       <use xlink:href="#HelveticaNeue-38"/>
       <use xlink:href="#HelveticaNeue-30" x="55.599991"/>
      </g>
     </g>
    </g>
    <g id="xtick_6">
     <g id="line2d_6">
      <g>
       <use xlink:href="#m174a908820" x="385.297188" y="187.362406" style="fill: #14223f; stroke: #14223f; stroke-width: 0.8"/>
      </g>
     </g>
     <g id="text_6">
      <!-- 100 -->
      <g style="fill: #14223f" transform="translate(377.375078 201.146) scale(0.095 -0.095)">
       <defs>
        <path id="HelveticaNeue-31" d="M 2278 0 
L 2278 4538 
L 1862 4538 
Q 1818 4282 1696 4115 
Q 1574 3949 1398 3853 
Q 1222 3757 1004 3721 
Q 787 3686 557 3686 
L 557 3251 
L 1734 3251 
L 1734 0 
L 2278 0 
z
" transform="scale(0.015625)"/>
       </defs>
       <use xlink:href="#HelveticaNeue-31"/>
       <use xlink:href="#HelveticaNeue-30" x="55.599991"/>
       <use xlink:href="#HelveticaNeue-30" x="111.199982"/>
      </g>
     </g>
    </g>
    <g id="xtick_7">
     <g id="line2d_7">
      <g>
       <use xlink:href="#m174a908820" x="432.913188" y="187.362406" style="fill: #14223f; stroke: #14223f; stroke-width: 0.8"/>
      </g>
     </g>
     <g id="text_7">
      <!-- 120 -->
      <g style="fill: #14223f" transform="translate(424.991078 201.146) scale(0.095 -0.095)">
       <use xlink:href="#HelveticaNeue-31"/>
       <use xlink:href="#HelveticaNeue-32" x="55.599991"/>
       <use xlink:href="#HelveticaNeue-30" x="111.199982"/>
      </g>
     </g>
    </g>
    <g id="xtick_8">
     <g id="line2d_8">
      <g>
       <use xlink:href="#m174a908820" x="480.529188" y="187.362406" style="fill: #14223f; stroke: #14223f; stroke-width: 0.8"/>
      </g>
     </g>
     <g id="text_8">
      <!-- 140 -->
      <g style="fill: #14223f" transform="translate(472.607078 201.146) scale(0.095 -0.095)">
       <use xlink:href="#HelveticaNeue-31"/>
       <use xlink:href="#HelveticaNeue-34" x="55.599991"/>
       <use xlink:href="#HelveticaNeue-30" x="111.199982"/>
      </g>
     </g>
    </g>
    <g id="text_9">
     <!-- Months until superseded or retired -->
     <g style="fill: #14223f" transform="translate(248.899062 214.158422) scale(0.1 -0.1)">
      <defs>
       <path id="HelveticaNeue-4d" d="M 512 4570 
L 512 0 
L 1088 0 
L 1088 3802 
L 1101 3802 
L 2528 0 
L 3046 0 
L 4474 3802 
L 4486 3802 
L 4486 0 
L 5062 0 
L 5062 4570 
L 4230 4570 
L 2784 730 
L 1344 4570 
L 512 4570 
z
" transform="scale(0.015625)"/>
       <path id="HelveticaNeue-6f" d="M 806 1651 
Q 806 1952 886 2185 
Q 966 2419 1107 2579 
Q 1248 2739 1437 2822 
Q 1626 2906 1837 2906 
Q 2048 2906 2237 2822 
Q 2426 2739 2566 2579 
Q 2707 2419 2787 2185 
Q 2867 1952 2867 1651 
Q 2867 1350 2787 1116 
Q 2707 883 2566 726 
Q 2426 570 2237 486 
Q 2048 403 1837 403 
Q 1626 403 1437 486 
Q 1248 570 1107 726 
Q 966 883 886 1116 
Q 806 1350 806 1651 
z
M 230 1651 
Q 230 1286 332 972 
Q 435 659 640 425 
Q 845 192 1145 61 
Q 1446 -70 1837 -70 
Q 2234 -70 2531 61 
Q 2829 192 3033 425 
Q 3238 659 3340 972 
Q 3443 1286 3443 1651 
Q 3443 2016 3340 2333 
Q 3238 2650 3033 2883 
Q 2829 3117 2531 3251 
Q 2234 3386 1837 3386 
Q 1446 3386 1145 3251 
Q 845 3117 640 2883 
Q 435 2650 332 2333 
Q 230 2016 230 1651 
z
" transform="scale(0.015625)"/>
       <path id="HelveticaNeue-6e" d="M 410 3309 
L 410 0 
L 954 0 
L 954 1869 
Q 954 2093 1014 2281 
Q 1075 2470 1196 2611 
Q 1318 2752 1500 2829 
Q 1683 2906 1933 2906 
Q 2246 2906 2425 2726 
Q 2605 2547 2605 2240 
L 2605 0 
L 3149 0 
L 3149 2176 
Q 3149 2445 3094 2665 
Q 3040 2886 2905 3046 
Q 2771 3206 2553 3296 
Q 2336 3386 2010 3386 
Q 1274 3386 934 2784 
L 922 2784 
L 922 3309 
L 410 3309 
z
" transform="scale(0.015625)"/>
       <path id="HelveticaNeue-74" d="M 1165 3309 
L 1165 4301 
L 621 4301 
L 621 3309 
L 58 3309 
L 58 2829 
L 621 2829 
L 621 723 
Q 621 493 665 352 
Q 710 211 803 134 
Q 896 58 1046 29 
Q 1197 0 1408 0 
L 1824 0 
L 1824 480 
L 1574 480 
Q 1446 480 1366 489 
Q 1286 499 1241 531 
Q 1197 563 1181 620 
Q 1165 678 1165 774 
L 1165 2829 
L 1824 2829 
L 1824 3309 
L 1165 3309 
z
" transform="scale(0.015625)"/>
       <path id="HelveticaNeue-68" d="M 410 4570 
L 410 0 
L 954 0 
L 954 1869 
Q 954 2093 1014 2281 
Q 1075 2470 1196 2611 
Q 1318 2752 1500 2829 
Q 1683 2906 1933 2906 
Q 2246 2906 2425 2726 
Q 2605 2547 2605 2240 
L 2605 0 
L 3149 0 
L 3149 2176 
Q 3149 2445 3094 2665 
Q 3040 2886 2905 3046 
Q 2771 3206 2553 3296 
Q 2336 3386 2010 3386 
Q 1862 3386 1705 3354 
Q 1549 3322 1405 3254 
Q 1261 3187 1145 3081 
Q 1030 2976 966 2822 
L 954 2822 
L 954 4570 
L 410 4570 
z
" transform="scale(0.015625)"/>
       <path id="HelveticaNeue-73" d="M 742 1043 
L 198 1043 
Q 211 736 326 521 
Q 442 307 634 176 
Q 826 45 1075 -12 
Q 1325 -70 1600 -70 
Q 1850 -70 2102 -22 
Q 2355 26 2556 147 
Q 2758 269 2883 467 
Q 3008 666 3008 966 
Q 3008 1203 2915 1363 
Q 2822 1523 2672 1628 
Q 2522 1734 2326 1798 
Q 2131 1862 1926 1907 
Q 1734 1952 1542 1993 
Q 1350 2035 1196 2096 
Q 1043 2157 944 2249 
Q 845 2342 845 2483 
Q 845 2611 909 2691 
Q 973 2771 1075 2819 
Q 1178 2867 1302 2886 
Q 1427 2906 1549 2906 
Q 1683 2906 1814 2877 
Q 1946 2848 2054 2784 
Q 2163 2720 2233 2614 
Q 2304 2509 2317 2349 
L 2861 2349 
Q 2842 2650 2733 2851 
Q 2624 3053 2441 3171 
Q 2259 3290 2022 3338 
Q 1786 3386 1504 3386 
Q 1286 3386 1065 3331 
Q 845 3277 669 3165 
Q 493 3053 381 2873 
Q 269 2694 269 2445 
Q 269 2125 429 1945 
Q 589 1766 829 1667 
Q 1069 1568 1350 1513 
Q 1632 1459 1872 1392 
Q 2112 1325 2272 1216 
Q 2432 1107 2432 896 
Q 2432 742 2355 643 
Q 2278 544 2160 493 
Q 2042 442 1901 422 
Q 1760 403 1632 403 
Q 1466 403 1309 435 
Q 1152 467 1027 540 
Q 902 614 825 739 
Q 749 864 742 1043 
z
" transform="scale(0.015625)"/>
       <path id="HelveticaNeue-20" transform="scale(0.015625)"/>
       <path id="HelveticaNeue-75" d="M 3149 0 
L 3149 3309 
L 2605 3309 
L 2605 1440 
Q 2605 1216 2544 1027 
Q 2483 838 2361 697 
Q 2240 557 2057 480 
Q 1875 403 1626 403 
Q 1312 403 1133 582 
Q 954 762 954 1069 
L 954 3309 
L 410 3309 
L 410 1133 
Q 410 864 464 643 
Q 518 422 652 262 
Q 787 102 1004 16 
Q 1222 -70 1549 -70 
Q 1914 -70 2182 74 
Q 2451 218 2624 525 
L 2637 525 
L 2637 0 
L 3149 0 
z
" transform="scale(0.015625)"/>
       <path id="HelveticaNeue-69" d="M 986 3904 
L 986 4570 
L 442 4570 
L 442 3904 
L 986 3904 
z
M 442 3309 
L 442 0 
L 986 0 
L 986 3309 
L 442 3309 
z
" transform="scale(0.015625)"/>
       <path id="HelveticaNeue-6c" d="M 442 4570 
L 442 0 
L 986 0 
L 986 4570 
L 442 4570 
z
" transform="scale(0.015625)"/>
       <path id="HelveticaNeue-70" d="M 429 3309 
L 429 -1261 
L 973 -1261 
L 973 442 
L 986 442 
Q 1075 294 1206 195 
Q 1338 96 1485 38 
Q 1632 -19 1782 -44 
Q 1933 -70 2054 -70 
Q 2432 -70 2717 64 
Q 3002 198 3190 432 
Q 3379 666 3472 979 
Q 3565 1293 3565 1645 
Q 3565 1997 3469 2310 
Q 3373 2624 3184 2864 
Q 2995 3104 2710 3245 
Q 2426 3386 2042 3386 
Q 1696 3386 1408 3261 
Q 1120 3136 986 2861 
L 973 2861 
L 973 3309 
L 429 3309 
z
M 2989 1683 
Q 2989 1440 2937 1209 
Q 2886 979 2771 800 
Q 2656 621 2467 512 
Q 2278 403 1997 403 
Q 1715 403 1516 508 
Q 1318 614 1193 787 
Q 1069 960 1011 1187 
Q 954 1414 954 1658 
Q 954 1888 1008 2112 
Q 1062 2336 1184 2512 
Q 1306 2688 1498 2797 
Q 1690 2906 1965 2906 
Q 2227 2906 2422 2803 
Q 2618 2701 2742 2528 
Q 2867 2355 2928 2134 
Q 2989 1914 2989 1683 
z
" transform="scale(0.015625)"/>
       <path id="HelveticaNeue-65" d="M 2707 1971 
L 806 1971 
Q 819 2163 889 2332 
Q 960 2502 1081 2630 
Q 1203 2758 1372 2832 
Q 1542 2906 1754 2906 
Q 1958 2906 2128 2832 
Q 2298 2758 2422 2633 
Q 2547 2509 2620 2336 
Q 2694 2163 2707 1971 
z
M 3232 1050 
L 2694 1050 
Q 2624 723 2403 563 
Q 2182 403 1837 403 
Q 1568 403 1369 492 
Q 1171 582 1043 732 
Q 915 883 857 1078 
Q 800 1274 806 1491 
L 3283 1491 
Q 3296 1792 3229 2125 
Q 3162 2458 2986 2739 
Q 2810 3021 2518 3203 
Q 2227 3386 1786 3386 
Q 1446 3386 1161 3258 
Q 877 3130 669 2899 
Q 461 2669 345 2355 
Q 230 2042 230 1664 
Q 243 1286 342 966 
Q 442 646 640 416 
Q 838 186 1129 58 
Q 1421 -70 1818 -70 
Q 2381 -70 2752 211 
Q 3123 493 3232 1050 
z
" transform="scale(0.015625)"/>
       <path id="HelveticaNeue-72" d="M 390 3309 
L 390 0 
L 934 0 
L 934 1472 
Q 934 1792 998 2038 
Q 1062 2285 1203 2457 
Q 1344 2630 1574 2720 
Q 1805 2810 2131 2810 
L 2131 3386 
Q 1690 3398 1402 3206 
Q 1114 3014 915 2611 
L 902 2611 
L 902 3309 
L 390 3309 
z
" transform="scale(0.015625)"/>
       <path id="HelveticaNeue-64" d="M 806 1626 
Q 806 1869 857 2099 
Q 909 2330 1024 2509 
Q 1139 2688 1331 2797 
Q 1523 2906 1798 2906 
Q 2080 2906 2278 2800 
Q 2477 2694 2601 2521 
Q 2726 2349 2784 2121 
Q 2842 1894 2842 1651 
Q 2842 1421 2787 1197 
Q 2733 973 2611 797 
Q 2490 621 2298 512 
Q 2106 403 1830 403 
Q 1568 403 1373 505 
Q 1178 608 1053 781 
Q 928 954 867 1174 
Q 806 1395 806 1626 
z
M 3366 0 
L 3366 4570 
L 2822 4570 
L 2822 2867 
L 2810 2867 
Q 2720 3014 2589 3113 
Q 2458 3213 2310 3273 
Q 2163 3334 2016 3360 
Q 1869 3386 1741 3386 
Q 1363 3386 1078 3248 
Q 794 3110 605 2876 
Q 416 2643 323 2329 
Q 230 2016 230 1664 
Q 230 1312 326 998 
Q 422 685 611 448 
Q 800 211 1085 70 
Q 1370 -70 1754 -70 
Q 2099 -70 2387 51 
Q 2675 173 2810 448 
L 2822 448 
L 2822 0 
L 3366 0 
z
" transform="scale(0.015625)"/>
      </defs>
      <use xlink:href="#HelveticaNeue-4d"/>
      <use xlink:href="#HelveticaNeue-6f" x="87.099991"/>
      <use xlink:href="#HelveticaNeue-6e" x="144.499985"/>
      <use xlink:href="#HelveticaNeue-74" x="200.099976"/>
      <use xlink:href="#HelveticaNeue-68" x="231.59996"/>
      <use xlink:href="#HelveticaNeue-73" x="287.199951"/>
      <use xlink:href="#HelveticaNeue-20" x="337.199936"/>
      <use xlink:href="#HelveticaNeue-75" x="364.999924"/>
      <use xlink:href="#HelveticaNeue-6e" x="420.599915"/>
      <use xlink:href="#HelveticaNeue-74" x="476.199905"/>
      <use xlink:href="#HelveticaNeue-69" x="507.69989"/>
      <use xlink:href="#HelveticaNeue-6c" x="529.899887"/>
      <use xlink:href="#HelveticaNeue-20" x="552.099884"/>
      <use xlink:href="#HelveticaNeue-73" x="579.899872"/>
      <use xlink:href="#HelveticaNeue-75" x="629.899857"/>
      <use xlink:href="#HelveticaNeue-70" x="685.499847"/>
      <use xlink:href="#HelveticaNeue-65" x="744.799835"/>
      <use xlink:href="#HelveticaNeue-72" x="798.499832"/>
      <use xlink:href="#HelveticaNeue-73" x="831.79982"/>
      <use xlink:href="#HelveticaNeue-65" x="881.799805"/>
      <use xlink:href="#HelveticaNeue-64" x="935.499802"/>
      <use xlink:href="#HelveticaNeue-65" x="994.799789"/>
      <use xlink:href="#HelveticaNeue-64" x="1048.499786"/>
      <use xlink:href="#HelveticaNeue-20" x="1107.799774"/>
      <use xlink:href="#HelveticaNeue-6f" x="1135.599762"/>
      <use xlink:href="#HelveticaNeue-72" x="1192.999756"/>
      <use xlink:href="#HelveticaNeue-20" x="1226.299744"/>
      <use xlink:href="#HelveticaNeue-72" x="1254.099731"/>
      <use xlink:href="#HelveticaNeue-65" x="1285.649719"/>
      <use xlink:href="#HelveticaNeue-74" x="1339.349716"/>
      <use xlink:href="#HelveticaNeue-69" x="1370.849701"/>
      <use xlink:href="#HelveticaNeue-72" x="1393.049698"/>
      <use xlink:href="#HelveticaNeue-65" x="1424.599686"/>
      <use xlink:href="#HelveticaNeue-64" x="1478.299683"/>
     </g>
    </g>
   </g>
   <g id="matplotlib.axis_2">
    <g id="ytick_1">
     <g id="line2d_9"/>
     <g id="text_10">
      <!-- Robot body -->
      <g style="fill: #14223f" transform="translate(90.926562 162.07026) scale(0.1 -0.1)">
       <defs>
        <path id="HelveticaNeue-52" d="M 499 4570 
L 499 0 
L 1107 0 
L 1107 1952 
L 2592 1952 
Q 2816 1952 2950 1885 
Q 3085 1818 3168 1706 
Q 3251 1594 3289 1443 
Q 3328 1293 3354 1126 
Q 3386 960 3392 787 
Q 3398 614 3404 464 
Q 3411 314 3433 192 
Q 3456 70 3520 0 
L 4198 0 
Q 4102 115 4054 265 
Q 4006 416 3980 582 
Q 3955 749 3948 921 
Q 3942 1094 3930 1261 
Q 3910 1427 3875 1580 
Q 3840 1734 3766 1859 
Q 3693 1984 3568 2073 
Q 3443 2163 3245 2202 
L 3245 2214 
Q 3661 2330 3849 2643 
Q 4038 2957 4038 3373 
Q 4038 3930 3670 4250 
Q 3302 4570 2650 4570 
L 499 4570 
z
M 2374 2464 
L 1107 2464 
L 1107 4058 
L 2618 4058 
Q 3046 4058 3238 3840 
Q 3430 3622 3430 3277 
Q 3430 3027 3344 2870 
Q 3258 2714 3114 2621 
Q 2970 2528 2778 2496 
Q 2586 2464 2374 2464 
z
" transform="scale(0.015625)"/>
        <path id="HelveticaNeue-62" d="M 429 4570 
L 429 0 
L 973 0 
L 973 442 
L 986 442 
Q 1075 294 1206 195 
Q 1338 96 1485 38 
Q 1632 -19 1782 -44 
Q 1933 -70 2054 -70 
Q 2432 -70 2717 64 
Q 3002 198 3190 432 
Q 3379 666 3472 979 
Q 3565 1293 3565 1645 
Q 3565 1997 3469 2310 
Q 3373 2624 3184 2864 
Q 2995 3104 2710 3245 
Q 2426 3386 2042 3386 
Q 1696 3386 1408 3261 
Q 1120 3136 986 2861 
L 973 2861 
L 973 4570 
L 429 4570 
z
M 2989 1683 
Q 2989 1440 2937 1209 
Q 2886 979 2771 800 
Q 2656 621 2467 512 
Q 2278 403 1997 403 
Q 1715 403 1516 508 
Q 1318 614 1193 787 
Q 1069 960 1011 1187 
Q 954 1414 954 1658 
Q 954 1888 1008 2112 
Q 1062 2336 1184 2512 
Q 1306 2688 1498 2797 
Q 1690 2906 1965 2906 
Q 2227 2906 2422 2803 
Q 2618 2701 2742 2528 
Q 2867 2355 2928 2134 
Q 2989 1914 2989 1683 
z
" transform="scale(0.015625)"/>
        <path id="HelveticaNeue-79" d="M 1709 -442 
Q 1613 -685 1520 -851 
Q 1427 -1018 1315 -1123 
Q 1203 -1229 1065 -1277 
Q 928 -1325 749 -1325 
Q 653 -1325 557 -1312 
Q 461 -1299 371 -1267 
L 371 -768 
Q 442 -800 534 -822 
Q 627 -845 691 -845 
Q 858 -845 970 -765 
Q 1082 -685 1139 -538 
L 1363 19 
L 51 3309 
L 666 3309 
L 1632 602 
L 1645 602 
L 2573 3309 
L 3149 3309 
L 1709 -442 
z
" transform="scale(0.015625)"/>
       </defs>
       <use xlink:href="#HelveticaNeue-52"/>
       <use xlink:href="#HelveticaNeue-6f" x="68.499985"/>
       <use xlink:href="#HelveticaNeue-62" x="125.899979"/>
       <use xlink:href="#HelveticaNeue-6f" x="185.199966"/>
       <use xlink:href="#HelveticaNeue-74" x="242.59996"/>
       <use xlink:href="#HelveticaNeue-20" x="274.099945"/>
       <use xlink:href="#HelveticaNeue-62" x="301.899933"/>
       <use xlink:href="#HelveticaNeue-6f" x="361.199921"/>
       <use xlink:href="#HelveticaNeue-64" x="418.599915"/>
       <use xlink:href="#HelveticaNeue-79" x="477.899902"/>
      </g>
      <!-- (physical design life) -->
      <g style="fill: #14223f" transform="translate(53.715625 172.911822) scale(0.1 -0.1)">
       <defs>
        <path id="HelveticaNeue-28" d="M 1306 -1261 
L 1722 -1261 
Q 1267 -525 1072 198 
Q 877 922 877 1728 
Q 877 2515 1069 3232 
Q 1261 3949 1722 4678 
L 1306 4678 
Q 806 4019 553 3251 
Q 301 2483 301 1728 
Q 301 1306 371 922 
Q 442 538 573 173 
Q 704 -192 889 -547 
Q 1075 -902 1306 -1261 
z
" transform="scale(0.015625)"/>
        <path id="HelveticaNeue-63" d="M 2656 2246 
L 3219 2246 
Q 3187 2541 3065 2755 
Q 2944 2970 2755 3110 
Q 2566 3251 2320 3318 
Q 2074 3386 1792 3386 
Q 1402 3386 1107 3248 
Q 813 3110 617 2870 
Q 422 2630 326 2307 
Q 230 1984 230 1613 
Q 230 1242 329 931 
Q 429 621 624 397 
Q 819 173 1110 51 
Q 1402 -70 1779 -70 
Q 2413 -70 2781 262 
Q 3149 595 3238 1210 
L 2682 1210 
Q 2630 826 2403 614 
Q 2176 403 1773 403 
Q 1517 403 1331 505 
Q 1146 608 1030 777 
Q 915 947 860 1164 
Q 806 1382 806 1613 
Q 806 1862 857 2096 
Q 909 2330 1027 2509 
Q 1146 2688 1344 2797 
Q 1542 2906 1837 2906 
Q 2182 2906 2387 2733 
Q 2592 2560 2656 2246 
z
" transform="scale(0.015625)"/>
        <path id="HelveticaNeue-61" d="M 3341 13 
Q 3200 -70 2950 -70 
Q 2739 -70 2614 48 
Q 2490 166 2490 435 
Q 2266 166 1968 48 
Q 1670 -70 1325 -70 
Q 1101 -70 899 -19 
Q 698 32 550 141 
Q 403 250 316 426 
Q 230 602 230 851 
Q 230 1133 326 1312 
Q 422 1491 579 1603 
Q 736 1715 937 1772 
Q 1139 1830 1350 1869 
Q 1574 1914 1776 1936 
Q 1978 1958 2131 2000 
Q 2285 2042 2374 2122 
Q 2464 2202 2464 2355 
Q 2464 2534 2397 2643 
Q 2330 2752 2224 2809 
Q 2118 2867 1987 2886 
Q 1856 2906 1728 2906 
Q 1382 2906 1152 2774 
Q 922 2643 902 2278 
L 358 2278 
Q 371 2586 486 2797 
Q 602 3008 794 3139 
Q 986 3270 1232 3328 
Q 1478 3386 1760 3386 
Q 1984 3386 2205 3354 
Q 2426 3322 2605 3222 
Q 2784 3123 2893 2944 
Q 3002 2765 3002 2477 
L 3002 774 
Q 3002 582 3024 492 
Q 3046 403 3174 403 
Q 3245 403 3341 435 
L 3341 13 
z
M 2458 1709 
Q 2355 1632 2188 1597 
Q 2022 1562 1840 1539 
Q 1658 1517 1472 1488 
Q 1286 1459 1139 1395 
Q 992 1331 899 1212 
Q 806 1094 806 890 
Q 806 755 860 662 
Q 915 570 1001 512 
Q 1088 454 1203 428 
Q 1318 403 1446 403 
Q 1715 403 1907 476 
Q 2099 550 2220 662 
Q 2342 774 2400 905 
Q 2458 1037 2458 1152 
L 2458 1709 
z
" transform="scale(0.015625)"/>
        <path id="HelveticaNeue-67" d="M 3264 282 
L 3264 3309 
L 2752 3309 
L 2752 2835 
L 2746 2835 
Q 2598 3110 2336 3248 
Q 2074 3386 1760 3386 
Q 1331 3386 1036 3222 
Q 742 3059 563 2806 
Q 384 2554 307 2243 
Q 230 1933 230 1638 
Q 230 1299 323 995 
Q 416 691 601 464 
Q 787 237 1062 102 
Q 1338 -32 1709 -32 
Q 2029 -32 2313 112 
Q 2598 256 2739 563 
L 2752 563 
L 2752 346 
Q 2752 70 2697 -160 
Q 2643 -390 2521 -553 
Q 2400 -717 2214 -809 
Q 2029 -902 1760 -902 
Q 1626 -902 1478 -873 
Q 1331 -845 1206 -781 
Q 1082 -717 995 -614 
Q 909 -512 902 -365 
L 358 -365 
Q 371 -634 499 -819 
Q 627 -1005 822 -1120 
Q 1018 -1235 1258 -1286 
Q 1498 -1338 1728 -1338 
Q 2522 -1338 2893 -934 
Q 3264 -531 3264 282 
z
M 1741 442 
Q 1472 442 1293 554 
Q 1114 666 1005 848 
Q 896 1030 851 1254 
Q 806 1478 806 1702 
Q 806 1939 860 2156 
Q 915 2374 1033 2540 
Q 1152 2707 1337 2806 
Q 1523 2906 1786 2906 
Q 2042 2906 2221 2803 
Q 2400 2701 2512 2531 
Q 2624 2362 2675 2150 
Q 2726 1939 2726 1722 
Q 2726 1491 2672 1260 
Q 2618 1030 2502 848 
Q 2387 666 2198 554 
Q 2010 442 1741 442 
z
" transform="scale(0.015625)"/>
        <path id="HelveticaNeue-66" d="M 634 2829 
L 634 0 
L 1178 0 
L 1178 2829 
L 1818 2829 
L 1818 3309 
L 1178 3309 
L 1178 3770 
Q 1178 3987 1286 4064 
Q 1395 4141 1594 4141 
Q 1664 4141 1747 4131 
Q 1830 4122 1901 4096 
L 1901 4570 
Q 1824 4595 1725 4608 
Q 1626 4621 1549 4621 
Q 1101 4621 867 4413 
Q 634 4205 634 3802 
L 634 3309 
L 77 3309 
L 77 2829 
L 634 2829 
z
" transform="scale(0.015625)"/>
        <path id="HelveticaNeue-29" d="M -58 -1261 
L 352 -1261 
Q 851 -602 1104 163 
Q 1357 928 1357 1683 
Q 1357 2106 1286 2490 
Q 1216 2874 1085 3242 
Q 954 3610 768 3965 
Q 582 4320 352 4678 
L -58 4678 
Q 390 3942 585 3216 
Q 781 2490 781 1683 
Q 781 902 589 182 
Q 397 -538 -58 -1261 
z
" transform="scale(0.015625)"/>
       </defs>
       <use xlink:href="#HelveticaNeue-28"/>
       <use xlink:href="#HelveticaNeue-70" x="25.899994"/>
       <use xlink:href="#HelveticaNeue-68" x="85.199982"/>
       <use xlink:href="#HelveticaNeue-79" x="140.799973"/>
       <use xlink:href="#HelveticaNeue-73" x="190.799957"/>
       <use xlink:href="#HelveticaNeue-69" x="240.799942"/>
       <use xlink:href="#HelveticaNeue-63" x="262.999939"/>
       <use xlink:href="#HelveticaNeue-61" x="316.699936"/>
       <use xlink:href="#HelveticaNeue-6c" x="370.399933"/>
       <use xlink:href="#HelveticaNeue-20" x="392.59993"/>
       <use xlink:href="#HelveticaNeue-64" x="420.399918"/>
       <use xlink:href="#HelveticaNeue-65" x="479.699905"/>
       <use xlink:href="#HelveticaNeue-73" x="533.399902"/>
       <use xlink:href="#HelveticaNeue-69" x="583.399887"/>
       <use xlink:href="#HelveticaNeue-67" x="605.599884"/>
       <use xlink:href="#HelveticaNeue-6e" x="662.999878"/>
       <use xlink:href="#HelveticaNeue-20" x="718.599869"/>
       <use xlink:href="#HelveticaNeue-6c" x="746.399857"/>
       <use xlink:href="#HelveticaNeue-69" x="768.599854"/>
       <use xlink:href="#HelveticaNeue-66" x="790.79985"/>
       <use xlink:href="#HelveticaNeue-65" x="820.399841"/>
       <use xlink:href="#HelveticaNeue-29" x="874.099838"/>
      </g>
     </g>
    </g>
    <g id="ytick_2">
     <g id="line2d_10"/>
     <g id="text_11">
      <!-- AI compute -->
      <g style="fill: #14223f" transform="translate(92.217187 105.904875) scale(0.1 -0.1)">
       <defs>
        <path id="HelveticaNeue-41" d="M 1286 1888 
L 2061 4019 
L 2074 4019 
L 2835 1888 
L 1286 1888 
z
M 1741 4570 
L -38 0 
L 582 0 
L 1094 1376 
L 3027 1376 
L 3526 0 
L 4198 0 
L 2413 4570 
L 1741 4570 
z
" transform="scale(0.015625)"/>
        <path id="HelveticaNeue-49" d="M 525 4570 
L 525 0 
L 1133 0 
L 1133 4570 
L 525 4570 
z
" transform="scale(0.015625)"/>
        <path id="HelveticaNeue-6d" d="M 410 3309 
L 410 0 
L 954 0 
L 954 2061 
Q 954 2157 1002 2301 
Q 1050 2445 1155 2579 
Q 1261 2714 1430 2810 
Q 1600 2906 1837 2906 
Q 2022 2906 2140 2851 
Q 2259 2797 2329 2697 
Q 2400 2598 2429 2464 
Q 2458 2330 2458 2170 
L 2458 0 
L 3002 0 
L 3002 2061 
Q 3002 2445 3232 2675 
Q 3462 2906 3866 2906 
Q 4064 2906 4189 2848 
Q 4314 2790 4384 2691 
Q 4454 2592 4480 2457 
Q 4506 2323 4506 2170 
L 4506 0 
L 5050 0 
L 5050 2426 
Q 5050 2682 4970 2864 
Q 4890 3046 4746 3161 
Q 4602 3277 4400 3331 
Q 4198 3386 3949 3386 
Q 3622 3386 3350 3238 
Q 3078 3091 2912 2822 
Q 2810 3130 2560 3258 
Q 2310 3386 2003 3386 
Q 1306 3386 934 2822 
L 922 2822 
L 922 3309 
L 410 3309 
z
" transform="scale(0.015625)"/>
       </defs>
       <use xlink:href="#HelveticaNeue-41"/>
       <use xlink:href="#HelveticaNeue-49" x="64.799988"/>
       <use xlink:href="#HelveticaNeue-20" x="90.699982"/>
       <use xlink:href="#HelveticaNeue-63" x="118.499969"/>
       <use xlink:href="#HelveticaNeue-6f" x="172.199966"/>
       <use xlink:href="#HelveticaNeue-6d" x="229.59996"/>
       <use xlink:href="#HelveticaNeue-70" x="314.899948"/>
       <use xlink:href="#HelveticaNeue-75" x="374.199936"/>
       <use xlink:href="#HelveticaNeue-74" x="429.799927"/>
       <use xlink:href="#HelveticaNeue-65" x="461.299911"/>
      </g>
      <!-- (useful life on the books, 2025) -->
      <g style="fill: #14223f" transform="translate(7.2 116.646437) scale(0.1 -0.1)">
       <defs>
        <path id="HelveticaNeue-6b" d="M 442 4570 
L 442 0 
L 986 0 
L 986 1254 
L 1498 1728 
L 2630 0 
L 3322 0 
L 1914 2106 
L 3226 3309 
L 2496 3309 
L 986 1862 
L 986 4570 
L 442 4570 
z
" transform="scale(0.015625)"/>
        <path id="HelveticaNeue-2c" d="M 531 710 
L 531 0 
L 909 0 
Q 915 -77 899 -166 
Q 883 -256 838 -342 
Q 794 -429 720 -502 
Q 646 -576 538 -614 
L 538 -934 
Q 909 -826 1075 -563 
Q 1242 -301 1242 64 
L 1242 710 
L 531 710 
z
" transform="scale(0.015625)"/>
        <path id="HelveticaNeue-35" d="M 3008 3981 
L 3008 4461 
L 768 4461 
L 346 2106 
L 813 2080 
Q 973 2272 1181 2390 
Q 1389 2509 1658 2509 
Q 1888 2509 2077 2432 
Q 2266 2355 2400 2217 
Q 2534 2080 2608 1891 
Q 2682 1702 2682 1478 
Q 2682 1210 2605 1008 
Q 2528 806 2397 672 
Q 2266 538 2090 470 
Q 1914 403 1722 403 
Q 1517 403 1347 464 
Q 1178 525 1053 637 
Q 928 749 854 899 
Q 781 1050 768 1222 
L 224 1222 
Q 230 915 345 672 
Q 461 429 659 265 
Q 858 102 1117 16 
Q 1376 -70 1670 -70 
Q 2067 -70 2364 54 
Q 2662 179 2860 390 
Q 3059 602 3158 874 
Q 3258 1146 3258 1434 
Q 3258 1824 3142 2115 
Q 3027 2406 2828 2601 
Q 2630 2797 2361 2893 
Q 2093 2989 1792 2989 
Q 1562 2989 1328 2909 
Q 1094 2829 947 2662 
L 934 2675 
L 1178 3981 
L 3008 3981 
z
" transform="scale(0.015625)"/>
       </defs>
       <use xlink:href="#HelveticaNeue-28"/>
       <use xlink:href="#HelveticaNeue-75" x="25.899994"/>
       <use xlink:href="#HelveticaNeue-73" x="81.499985"/>
       <use xlink:href="#HelveticaNeue-65" x="131.499969"/>
       <use xlink:href="#HelveticaNeue-66" x="185.199966"/>
       <use xlink:href="#HelveticaNeue-75" x="214.799957"/>
       <use xlink:href="#HelveticaNeue-6c" x="270.399948"/>
       <use xlink:href="#HelveticaNeue-20" x="292.599945"/>
       <use xlink:href="#HelveticaNeue-6c" x="320.399933"/>
       <use xlink:href="#HelveticaNeue-69" x="342.59993"/>
       <use xlink:href="#HelveticaNeue-66" x="364.799927"/>
       <use xlink:href="#HelveticaNeue-65" x="394.399918"/>
       <use xlink:href="#HelveticaNeue-20" x="448.099915"/>
       <use xlink:href="#HelveticaNeue-6f" x="475.899902"/>
       <use xlink:href="#HelveticaNeue-6e" x="533.299896"/>
       <use xlink:href="#HelveticaNeue-20" x="588.899887"/>
       <use xlink:href="#HelveticaNeue-74" x="616.699875"/>
       <use xlink:href="#HelveticaNeue-68" x="648.19986"/>
       <use xlink:href="#HelveticaNeue-65" x="703.79985"/>
       <use xlink:href="#HelveticaNeue-20" x="757.499847"/>
       <use xlink:href="#HelveticaNeue-62" x="785.299835"/>
       <use xlink:href="#HelveticaNeue-6f" x="844.599823"/>
       <use xlink:href="#HelveticaNeue-6f" x="901.999817"/>
       <use xlink:href="#HelveticaNeue-6b" x="959.399811"/>
       <use xlink:href="#HelveticaNeue-73" x="1011.299805"/>
       <use xlink:href="#HelveticaNeue-2c" x="1061.299789"/>
       <use xlink:href="#HelveticaNeue-20" x="1089.099777"/>
       <use xlink:href="#HelveticaNeue-32" x="1116.899765"/>
       <use xlink:href="#HelveticaNeue-30" x="1172.499756"/>
       <use xlink:href="#HelveticaNeue-32" x="1228.099747"/>
       <use xlink:href="#HelveticaNeue-35" x="1283.699738"/>
       <use xlink:href="#HelveticaNeue-29" x="1339.299728"/>
      </g>
     </g>
    </g>
    <g id="ytick_3">
     <g id="line2d_11"/>
     <g id="text_12">
      <!-- AI brain -->
      <g style="fill: #14223f" transform="translate(109.457812 49.68949) scale(0.1 -0.1)">
       <use xlink:href="#HelveticaNeue-41"/>
       <use xlink:href="#HelveticaNeue-49" x="64.799988"/>
       <use xlink:href="#HelveticaNeue-20" x="90.699982"/>
       <use xlink:href="#HelveticaNeue-62" x="118.499969"/>
       <use xlink:href="#HelveticaNeue-72" x="177.799957"/>
       <use xlink:href="#HelveticaNeue-61" x="211.099945"/>
       <use xlink:href="#HelveticaNeue-69" x="264.799942"/>
       <use xlink:href="#HelveticaNeue-6e" x="286.999939"/>
      </g>
      <!-- (faster accelerator each year) -->
      <g style="fill: #14223f" transform="translate(14.284375 60.431053) scale(0.1 -0.1)">
       <use xlink:href="#HelveticaNeue-28"/>
       <use xlink:href="#HelveticaNeue-66" x="25.899994"/>
       <use xlink:href="#HelveticaNeue-61" x="55.499985"/>
       <use xlink:href="#HelveticaNeue-73" x="109.199982"/>
       <use xlink:href="#HelveticaNeue-74" x="159.199966"/>
       <use xlink:href="#HelveticaNeue-65" x="190.699951"/>
       <use xlink:href="#HelveticaNeue-72" x="244.399948"/>
       <use xlink:href="#HelveticaNeue-20" x="277.699936"/>
       <use xlink:href="#HelveticaNeue-61" x="305.499924"/>
       <use xlink:href="#HelveticaNeue-63" x="359.199921"/>
       <use xlink:href="#HelveticaNeue-63" x="412.899918"/>
       <use xlink:href="#HelveticaNeue-65" x="466.599915"/>
       <use xlink:href="#HelveticaNeue-6c" x="520.299911"/>
       <use xlink:href="#HelveticaNeue-65" x="542.499908"/>
       <use xlink:href="#HelveticaNeue-72" x="596.199905"/>
       <use xlink:href="#HelveticaNeue-61" x="629.499893"/>
       <use xlink:href="#HelveticaNeue-74" x="683.19989"/>
       <use xlink:href="#HelveticaNeue-6f" x="714.699875"/>
       <use xlink:href="#HelveticaNeue-72" x="772.099869"/>
       <use xlink:href="#HelveticaNeue-20" x="805.399857"/>
       <use xlink:href="#HelveticaNeue-65" x="833.199844"/>
       <use xlink:href="#HelveticaNeue-61" x="886.899841"/>
       <use xlink:href="#HelveticaNeue-63" x="940.599838"/>
       <use xlink:href="#HelveticaNeue-68" x="994.299835"/>
       <use xlink:href="#HelveticaNeue-20" x="1049.899826"/>
       <use xlink:href="#HelveticaNeue-79" x="1077.699814"/>
       <use xlink:href="#HelveticaNeue-65" x="1127.699799"/>
       <use xlink:href="#HelveticaNeue-61" x="1181.399796"/>
       <use xlink:href="#HelveticaNeue-72" x="1235.099792"/>
       <use xlink:href="#HelveticaNeue-29" x="1268.39978"/>
      </g>
     </g>
    </g>
   </g>
   <g id="patch_3">
    <path d="M 147.217187 187.362406 
L 147.217187 26.586406 
" style="fill: none; stroke: #8a94a6; stroke-width: 0.8; stroke-linejoin: miter; stroke-linecap: square"/>
   </g>
   <g id="patch_4">
    <path d="M 147.217187 187.362406 
L 504.337188 187.362406 
" style="fill: none; stroke: #8a94a6; stroke-width: 0.8; stroke-linejoin: miter; stroke-linecap: square"/>
   </g>
   <g id="patch_5">
    <path d="M 147.217187 180.054406 
L 432.913188 180.054406 
L 432.913188 146.325175 
L 147.217187 146.325175 
z
" clip-path="url(#p5c14bc8999)" style="fill: #1f4e8c"/>
   </g>
   <g id="patch_6">
    <path d="M 147.217187 123.839022 
L 290.065187 123.839022 
L 290.065187 90.109791 
L 147.217187 90.109791 
z
" clip-path="url(#p5c14bc8999)" style="fill: #1f4e8c"/>
   </g>
   <g id="patch_7">
    <path d="M 147.217187 67.623637 
L 175.786788 67.623637 
L 175.786788 33.894406 
L 147.217187 33.894406 
z
" clip-path="url(#p5c14bc8999)" style="fill: #e8a13a"/>
   </g>
   <g id="text_13">
    <!-- Source: NVIDIA (2024); Amazon Form 10-Q (2025); The Robot Report (2019) -->
    <g style="fill: #8a94a6" transform="translate(147.217187 225.209906) scale(0.08 -0.08)">
     <defs>
      <path id="HelveticaNeue-53" d="M 3142 3232 
L 3718 3232 
Q 3706 3610 3574 3882 
Q 3443 4154 3216 4333 
Q 2989 4512 2688 4595 
Q 2387 4678 2035 4678 
Q 1722 4678 1424 4598 
Q 1126 4518 892 4355 
Q 659 4192 518 3939 
Q 378 3686 378 3341 
Q 378 3027 502 2819 
Q 627 2611 835 2480 
Q 1043 2349 1305 2269 
Q 1568 2189 1840 2128 
Q 2112 2067 2374 2009 
Q 2637 1952 2845 1859 
Q 3053 1766 3177 1619 
Q 3302 1472 3302 1235 
Q 3302 986 3200 826 
Q 3098 666 2931 573 
Q 2765 480 2557 441 
Q 2349 403 2144 403 
Q 1888 403 1645 467 
Q 1402 531 1219 665 
Q 1037 800 925 1008 
Q 813 1216 813 1504 
L 237 1504 
Q 237 1088 387 784 
Q 538 480 797 285 
Q 1056 90 1398 -6 
Q 1741 -102 2125 -102 
Q 2438 -102 2755 -28 
Q 3072 45 3328 208 
Q 3584 371 3747 630 
Q 3910 890 3910 1254 
Q 3910 1594 3785 1818 
Q 3661 2042 3453 2189 
Q 3245 2336 2982 2422 
Q 2720 2509 2448 2573 
Q 2176 2637 1913 2691 
Q 1651 2746 1443 2829 
Q 1235 2912 1110 3043 
Q 986 3174 986 3386 
Q 986 3610 1072 3760 
Q 1158 3910 1302 4000 
Q 1446 4090 1632 4128 
Q 1818 4166 2010 4166 
Q 2483 4166 2787 3945 
Q 3091 3725 3142 3232 
z
" transform="scale(0.015625)"/>
      <path id="HelveticaNeue-3a" d="M 1242 2598 
L 1242 3309 
L 531 3309 
L 531 2598 
L 1242 2598 
z
M 531 710 
L 531 0 
L 1242 0 
L 1242 710 
L 531 710 
z
" transform="scale(0.015625)"/>
      <path id="HelveticaNeue-4e" d="M 493 4570 
L 493 0 
L 1069 0 
L 1069 3667 
L 1082 3667 
L 3469 0 
L 4134 0 
L 4134 4570 
L 3558 4570 
L 3558 864 
L 3546 864 
L 1139 4570 
L 493 4570 
z
" transform="scale(0.015625)"/>
      <path id="HelveticaNeue-56" d="M 2298 0 
L 3923 4570 
L 3290 4570 
L 1971 608 
L 1958 608 
L 653 4570 
L 0 4570 
L 1606 0 
L 2298 0 
z
" transform="scale(0.015625)"/>
      <path id="HelveticaNeue-44" d="M 1107 512 
L 1107 4058 
L 2131 4058 
Q 2554 4058 2842 3939 
Q 3130 3821 3312 3593 
Q 3494 3366 3574 3043 
Q 3654 2720 3654 2310 
Q 3654 1888 3568 1590 
Q 3482 1293 3347 1094 
Q 3213 896 3043 781 
Q 2874 666 2701 605 
Q 2528 544 2374 528 
Q 2221 512 2118 512 
L 1107 512 
z
M 499 4570 
L 499 0 
L 2067 0 
Q 2637 0 3053 160 
Q 3469 320 3737 624 
Q 4006 928 4134 1373 
Q 4262 1818 4262 2394 
Q 4262 3494 3692 4032 
Q 3123 4570 2067 4570 
L 499 4570 
z
" transform="scale(0.015625)"/>
      <path id="HelveticaNeue-3b" d="M 1242 2598 
L 1242 3309 
L 531 3309 
L 531 2598 
L 1242 2598 
z
M 531 710 
L 531 0 
L 909 0 
Q 915 -77 899 -166 
Q 883 -256 838 -342 
Q 794 -429 720 -502 
Q 646 -576 538 -614 
L 538 -934 
Q 909 -826 1078 -563 
Q 1248 -301 1242 64 
L 1242 710 
L 531 710 
z
" transform="scale(0.015625)"/>
      <path id="HelveticaNeue-7a" d="M 141 416 
L 141 0 
L 2931 0 
L 2931 480 
L 819 480 
L 2842 2938 
L 2842 3309 
L 269 3309 
L 269 2829 
L 2138 2829 
L 141 416 
z
" transform="scale(0.015625)"/>
      <path id="HelveticaNeue-46" d="M 499 4570 
L 499 0 
L 1107 0 
L 1107 2093 
L 3206 2093 
L 3206 2605 
L 1107 2605 
L 1107 4058 
L 3501 4058 
L 3501 4570 
L 499 4570 
z
" transform="scale(0.015625)"/>
      <path id="HelveticaNeue-2d" d="M 320 2035 
L 320 1523 
L 2170 1523 
L 2170 2035 
L 320 2035 
z
" transform="scale(0.015625)"/>
      <path id="HelveticaNeue-51" d="M 2880 1306 
L 2560 934 
L 3066 531 
Q 2758 403 2432 403 
Q 2016 403 1715 566 
Q 1414 730 1222 998 
Q 1030 1267 940 1603 
Q 851 1939 851 2285 
Q 851 2630 940 2966 
Q 1030 3302 1222 3571 
Q 1414 3840 1715 4003 
Q 2016 4166 2432 4166 
Q 2848 4166 3149 4003 
Q 3450 3840 3642 3571 
Q 3834 3302 3923 2966 
Q 4013 2630 4013 2285 
Q 4013 1862 3885 1475 
Q 3757 1088 3488 819 
L 2880 1306 
z
M 4224 -390 
L 4531 -6 
L 3930 467 
Q 4275 813 4448 1286 
Q 4621 1760 4621 2285 
Q 4621 2752 4483 3184 
Q 4346 3616 4070 3949 
Q 3795 4282 3385 4480 
Q 2976 4678 2432 4678 
Q 1888 4678 1478 4480 
Q 1069 4282 793 3949 
Q 518 3616 380 3184 
Q 243 2752 243 2285 
Q 243 1818 380 1386 
Q 518 954 793 621 
Q 1069 288 1478 93 
Q 1888 -102 2432 -102 
Q 3066 -102 3526 166 
L 4224 -390 
z
" transform="scale(0.015625)"/>
      <path id="HelveticaNeue-54" d="M 1536 4058 
L 1536 0 
L 2144 0 
L 2144 4058 
L 3667 4058 
L 3667 4570 
L 13 4570 
L 13 4058 
L 1536 4058 
z
" transform="scale(0.015625)"/>
      <path id="HelveticaNeue-39" d="M 858 1094 
L 314 1094 
Q 365 506 742 218 
Q 1120 -70 1690 -70 
Q 2515 -70 2889 560 
Q 3264 1190 3264 2368 
Q 3264 3014 3139 3433 
Q 3014 3853 2803 4096 
Q 2592 4339 2310 4438 
Q 2029 4538 1709 4538 
Q 1382 4538 1107 4429 
Q 832 4320 633 4125 
Q 435 3930 326 3658 
Q 218 3386 218 3059 
Q 218 2726 310 2444 
Q 403 2163 585 1964 
Q 768 1766 1037 1654 
Q 1306 1542 1651 1542 
Q 1984 1542 2265 1712 
Q 2547 1882 2701 2170 
L 2714 2157 
Q 2688 1267 2438 835 
Q 2189 403 1690 403 
Q 1363 403 1126 582 
Q 890 762 858 1094 
z
M 2618 3021 
Q 2618 2822 2554 2640 
Q 2490 2458 2368 2320 
Q 2246 2182 2073 2102 
Q 1901 2022 1690 2022 
Q 1491 2022 1328 2102 
Q 1165 2182 1046 2316 
Q 928 2451 861 2624 
Q 794 2797 794 2982 
Q 794 3194 842 3386 
Q 890 3578 995 3728 
Q 1101 3878 1270 3968 
Q 1440 4058 1683 4058 
Q 1914 4058 2086 3974 
Q 2259 3891 2377 3747 
Q 2496 3603 2557 3417 
Q 2618 3232 2618 3021 
z
" transform="scale(0.015625)"/>
     </defs>
     <use xlink:href="#HelveticaNeue-53"/>
     <use xlink:href="#HelveticaNeue-6f" x="64.799988"/>
     <use xlink:href="#HelveticaNeue-75" x="122.199982"/>
     <use xlink:href="#HelveticaNeue-72" x="177.799973"/>
     <use xlink:href="#HelveticaNeue-63" x="209.34996"/>
     <use xlink:href="#HelveticaNeue-65" x="263.049957"/>
     <use xlink:href="#HelveticaNeue-3a" x="316.749954"/>
     <use xlink:href="#HelveticaNeue-20" x="344.549942"/>
     <use xlink:href="#HelveticaNeue-4e" x="372.34993"/>
     <use xlink:href="#HelveticaNeue-56" x="444.549911"/>
     <use xlink:href="#HelveticaNeue-49" x="505.649902"/>
     <use xlink:href="#HelveticaNeue-44" x="531.549896"/>
     <use xlink:href="#HelveticaNeue-49" x="601.94989"/>
     <use xlink:href="#HelveticaNeue-41" x="627.849884"/>
     <use xlink:href="#HelveticaNeue-20" x="692.649872"/>
     <use xlink:href="#HelveticaNeue-28" x="720.44986"/>
     <use xlink:href="#HelveticaNeue-32" x="746.349854"/>
     <use xlink:href="#HelveticaNeue-30" x="801.949844"/>
     <use xlink:href="#HelveticaNeue-32" x="857.549835"/>
     <use xlink:href="#HelveticaNeue-34" x="913.149826"/>
     <use xlink:href="#HelveticaNeue-29" x="968.749817"/>
     <use xlink:href="#HelveticaNeue-3b" x="994.649811"/>
     <use xlink:href="#HelveticaNeue-20" x="1022.449799"/>
     <use xlink:href="#HelveticaNeue-41" x="1050.249786"/>
     <use xlink:href="#HelveticaNeue-6d" x="1115.049774"/>
     <use xlink:href="#HelveticaNeue-61" x="1200.349762"/>
     <use xlink:href="#HelveticaNeue-7a" x="1254.049759"/>
     <use xlink:href="#HelveticaNeue-6f" x="1302.049744"/>
     <use xlink:href="#HelveticaNeue-6e" x="1359.449738"/>
     <use xlink:href="#HelveticaNeue-20" x="1415.049728"/>
     <use xlink:href="#HelveticaNeue-46" x="1442.849716"/>
     <use xlink:href="#HelveticaNeue-6f" x="1500.24971"/>
     <use xlink:href="#HelveticaNeue-72" x="1557.649704"/>
     <use xlink:href="#HelveticaNeue-6d" x="1590.949692"/>
     <use xlink:href="#HelveticaNeue-20" x="1676.24968"/>
     <use xlink:href="#HelveticaNeue-31" x="1704.049667"/>
     <use xlink:href="#HelveticaNeue-30" x="1759.649658"/>
     <use xlink:href="#HelveticaNeue-2d" x="1815.249649"/>
     <use xlink:href="#HelveticaNeue-51" x="1854.149643"/>
     <use xlink:href="#HelveticaNeue-20" x="1930.149628"/>
     <use xlink:href="#HelveticaNeue-28" x="1957.949615"/>
     <use xlink:href="#HelveticaNeue-32" x="1983.849609"/>
     <use xlink:href="#HelveticaNeue-30" x="2039.4496"/>
     <use xlink:href="#HelveticaNeue-32" x="2095.049591"/>
     <use xlink:href="#HelveticaNeue-35" x="2150.649582"/>
     <use xlink:href="#HelveticaNeue-29" x="2206.249573"/>
     <use xlink:href="#HelveticaNeue-3b" x="2232.149567"/>
     <use xlink:href="#HelveticaNeue-20" x="2259.949554"/>
     <use xlink:href="#HelveticaNeue-54" x="2287.749542"/>
     <use xlink:href="#HelveticaNeue-68" x="2345.149536"/>
     <use xlink:href="#HelveticaNeue-65" x="2400.749527"/>
     <use xlink:href="#HelveticaNeue-20" x="2454.449524"/>
     <use xlink:href="#HelveticaNeue-52" x="2482.249512"/>
     <use xlink:href="#HelveticaNeue-6f" x="2550.749496"/>
     <use xlink:href="#HelveticaNeue-62" x="2608.14949"/>
     <use xlink:href="#HelveticaNeue-6f" x="2667.449478"/>
     <use xlink:href="#HelveticaNeue-74" x="2724.849472"/>
     <use xlink:href="#HelveticaNeue-20" x="2756.349457"/>
     <use xlink:href="#HelveticaNeue-52" x="2784.149445"/>
     <use xlink:href="#HelveticaNeue-65" x="2852.649429"/>
     <use xlink:href="#HelveticaNeue-70" x="2906.349426"/>
     <use xlink:href="#HelveticaNeue-6f" x="2965.649414"/>
     <use xlink:href="#HelveticaNeue-72" x="3023.049408"/>
     <use xlink:href="#HelveticaNeue-74" x="3056.349396"/>
     <use xlink:href="#HelveticaNeue-20" x="3087.84938"/>
     <use xlink:href="#HelveticaNeue-28" x="3115.649368"/>
     <use xlink:href="#HelveticaNeue-32" x="3141.549362"/>
     <use xlink:href="#HelveticaNeue-30" x="3197.149353"/>
     <use xlink:href="#HelveticaNeue-31" x="3252.749344"/>
     <use xlink:href="#HelveticaNeue-39" x="3308.349335"/>
     <use xlink:href="#HelveticaNeue-29" x="3363.949326"/>
    </g>
   </g>
   <g id="text_14">
    <!-- The brain outpaces the body tenfold -->
    <g style="fill: #14223f" transform="translate(147.217187 16.586406) scale(0.13 -0.13)">
     <use xlink:href="#HelveticaNeue-54"/>
     <use xlink:href="#HelveticaNeue-68" x="57.399994"/>
     <use xlink:href="#HelveticaNeue-65" x="112.999985"/>
     <use xlink:href="#HelveticaNeue-20" x="166.699982"/>
     <use xlink:href="#HelveticaNeue-62" x="194.499969"/>
     <use xlink:href="#HelveticaNeue-72" x="253.799957"/>
     <use xlink:href="#HelveticaNeue-61" x="287.099945"/>
     <use xlink:href="#HelveticaNeue-69" x="340.799942"/>
     <use xlink:href="#HelveticaNeue-6e" x="362.999939"/>
     <use xlink:href="#HelveticaNeue-20" x="418.59993"/>
     <use xlink:href="#HelveticaNeue-6f" x="446.399918"/>
     <use xlink:href="#HelveticaNeue-75" x="503.799911"/>
     <use xlink:href="#HelveticaNeue-74" x="559.399902"/>
     <use xlink:href="#HelveticaNeue-70" x="590.899887"/>
     <use xlink:href="#HelveticaNeue-61" x="650.199875"/>
     <use xlink:href="#HelveticaNeue-63" x="703.899872"/>
     <use xlink:href="#HelveticaNeue-65" x="757.599869"/>
     <use xlink:href="#HelveticaNeue-73" x="811.299866"/>
     <use xlink:href="#HelveticaNeue-20" x="861.29985"/>
     <use xlink:href="#HelveticaNeue-74" x="889.099838"/>
     <use xlink:href="#HelveticaNeue-68" x="920.599823"/>
     <use xlink:href="#HelveticaNeue-65" x="976.199814"/>
     <use xlink:href="#HelveticaNeue-20" x="1029.899811"/>
     <use xlink:href="#HelveticaNeue-62" x="1057.699799"/>
     <use xlink:href="#HelveticaNeue-6f" x="1116.999786"/>
     <use xlink:href="#HelveticaNeue-64" x="1174.39978"/>
     <use xlink:href="#HelveticaNeue-79" x="1233.699768"/>
     <use xlink:href="#HelveticaNeue-20" x="1283.699753"/>
     <use xlink:href="#HelveticaNeue-74" x="1311.499741"/>
     <use xlink:href="#HelveticaNeue-65" x="1342.999725"/>
     <use xlink:href="#HelveticaNeue-6e" x="1396.699722"/>
     <use xlink:href="#HelveticaNeue-66" x="1452.299713"/>
     <use xlink:href="#HelveticaNeue-6f" x="1481.899704"/>
     <use xlink:href="#HelveticaNeue-6c" x="1539.299698"/>
     <use xlink:href="#HelveticaNeue-64" x="1561.499695"/>
    </g>
   </g>
   <g id="text_15">
    <!-- ~120 mo  (~10 yr) -->
    <g style="fill: #14223f" transform="translate(438.865188 165.678346) scale(0.095 -0.095)">
     <defs>
      <path id="HelveticaNeue-7e" d="M 3514 2368 
Q 3437 2234 3347 2109 
Q 3258 1984 3149 1885 
Q 3040 1786 2905 1725 
Q 2771 1664 2598 1664 
Q 2400 1664 2217 1741 
Q 2035 1818 1865 1907 
Q 1696 1997 1533 2073 
Q 1370 2150 1210 2150 
Q 1005 2150 867 1993 
Q 730 1837 653 1664 
L 307 1971 
Q 365 2099 448 2227 
Q 531 2355 646 2454 
Q 762 2554 909 2614 
Q 1056 2675 1242 2675 
Q 1414 2675 1596 2598 
Q 1779 2522 1955 2432 
Q 2131 2342 2297 2265 
Q 2464 2189 2605 2189 
Q 2701 2189 2781 2233 
Q 2861 2278 2928 2348 
Q 2995 2419 3052 2505 
Q 3110 2592 3168 2675 
L 3514 2368 
L 3514 2368 
z
" transform="scale(0.015625)"/>
     </defs>
     <use xlink:href="#HelveticaNeue-7e"/>
     <use xlink:href="#HelveticaNeue-31" x="59.999985"/>
     <use xlink:href="#HelveticaNeue-32" x="115.599976"/>
     <use xlink:href="#HelveticaNeue-30" x="171.199966"/>
     <use xlink:href="#HelveticaNeue-20" x="226.799957"/>
     <use xlink:href="#HelveticaNeue-6d" x="254.599945"/>
     <use xlink:href="#HelveticaNeue-6f" x="339.899933"/>
     <use xlink:href="#HelveticaNeue-20" x="397.299927"/>
     <use xlink:href="#HelveticaNeue-20" x="425.099915"/>
     <use xlink:href="#HelveticaNeue-28" x="452.899902"/>
     <use xlink:href="#HelveticaNeue-7e" x="478.799896"/>
     <use xlink:href="#HelveticaNeue-31" x="538.799881"/>
     <use xlink:href="#HelveticaNeue-30" x="594.399872"/>
     <use xlink:href="#HelveticaNeue-20" x="649.999863"/>
     <use xlink:href="#HelveticaNeue-79" x="677.79985"/>
     <use xlink:href="#HelveticaNeue-72" x="727.799835"/>
     <use xlink:href="#HelveticaNeue-29" x="761.099823"/>
    </g>
   </g>
   <g id="text_16">
    <!-- 60 mo  (5 yr) -->
    <g style="fill: #14223f" transform="translate(296.017187 109.462961) scale(0.095 -0.095)">
     <use xlink:href="#HelveticaNeue-36"/>
     <use xlink:href="#HelveticaNeue-30" x="55.599991"/>
     <use xlink:href="#HelveticaNeue-20" x="111.199982"/>
     <use xlink:href="#HelveticaNeue-6d" x="138.999969"/>
     <use xlink:href="#HelveticaNeue-6f" x="224.299957"/>
     <use xlink:href="#HelveticaNeue-20" x="281.699951"/>
     <use xlink:href="#HelveticaNeue-20" x="309.499939"/>
     <use xlink:href="#HelveticaNeue-28" x="337.299927"/>
     <use xlink:href="#HelveticaNeue-35" x="363.199921"/>
     <use xlink:href="#HelveticaNeue-20" x="418.799911"/>
     <use xlink:href="#HelveticaNeue-79" x="446.599899"/>
     <use xlink:href="#HelveticaNeue-72" x="496.599884"/>
     <use xlink:href="#HelveticaNeue-29" x="529.899872"/>
    </g>
   </g>
   <g id="text_17">
    <!-- 12 mo  (1 yr) -->
    <g style="fill: #14223f" transform="translate(181.738788 53.247576) scale(0.095 -0.095)">
     <use xlink:href="#HelveticaNeue-31"/>
     <use xlink:href="#HelveticaNeue-32" x="55.599991"/>
     <use xlink:href="#HelveticaNeue-20" x="111.199982"/>
     <use xlink:href="#HelveticaNeue-6d" x="138.999969"/>
     <use xlink:href="#HelveticaNeue-6f" x="224.299957"/>
     <use xlink:href="#HelveticaNeue-20" x="281.699951"/>
     <use xlink:href="#HelveticaNeue-20" x="309.499939"/>
     <use xlink:href="#HelveticaNeue-28" x="337.299927"/>
     <use xlink:href="#HelveticaNeue-31" x="363.199921"/>
     <use xlink:href="#HelveticaNeue-20" x="418.799911"/>
     <use xlink:href="#HelveticaNeue-79" x="446.599899"/>
     <use xlink:href="#HelveticaNeue-72" x="496.599884"/>
     <use xlink:href="#HelveticaNeue-29" x="529.899872"/>
    </g>
   </g>
  </g>
 </g>
 <defs>
  <clipPath id="p5c14bc8999">
   <rect x="147.217187" y="26.586406" width="357.12" height="160.776"/>
  </clipPath>
 </defs>
</svg>
